<svg xmlns="http://www.w3.org/2000/svg" aria-hidden="true" style="position:absolute;width:0;height:0;overflow:hidden">
  <defs>
   <symbol id="facebook" viewBox="0 0 32 32">
      <path d="M0 16.089C0 24.044 5.777 30.658 13.333 32V20.444h-4V16h4v-3.556c0-4 2.577-6.221 6.223-6.221 1.155 0 2.4.177 3.555.355v4.089h-2.044c-1.956 0-2.4.977-2.4 2.223v3.111h4.267l-.711 4.444h-3.556v11.556C26.223 30.66 32 24.046 32 16.09 32 7.241 24.8.001 16 .001S0 7.241 0 16.09z"/>
    </symbol>
    <symbol id="send-msge" viewBox="0 0 32 32">
      <path d="M29.106 15.591 2.965 2.485a.5.5 0 0 0-.71.565l2.694 11.006c.041.166.162.3.325.353l4.616 1.584-4.612 1.584a.49.49 0 0 0-.322.353l-2.7 11.022a.502.502 0 0 0 .71.566l26.141-13.031a.514.514 0 0 0 .225-.222.506.506 0 0 0-.225-.675zM5.338 25.822l1.572-6.425 9.225-3.166a.25.25 0 0 0 .156-.156.253.253 0 0 0-.156-.319L6.91 12.594l-1.566-6.4 19.625 9.841-19.631 9.787z"/>
    </symbol>
    <symbol id="map" viewBox="0 0 32 32">
      <path stroke-linecap="round" stroke-linejoin="round" stroke-width="1.333" d="M16 3a9.88 9.88 0 0 0-9.88 9.88v.72c.4 5.413 4.893 9.767 9.88 15.4 5.207-5.88 9.88-10.333 9.88-16.12A9.88 9.88 0 0 0 16 3zm0 5.133a4.763 4.763 0 0 1 4.392 2.936 4.749 4.749 0 0 1-1.034 5.181 4.758 4.758 0 0 1-7.314-.728A4.753 4.753 0 0 1 16 8.132z"/>
    </symbol>
    <symbol id="phone" viewBox="0 0 32 32">
      <path stroke-linecap="round" stroke-linejoin="round" stroke-width="1.333" d="M27.147 20.187a41.182 41.182 0 0 1-4.2-.74 2.073 2.073 0 0 0-2 .387c-.353.36-1.373 1.367-2.433 2.407a19.126 19.126 0 0 1-8.733-8.74c1.033-1.06 2-2.073 2.393-2.427a2.079 2.079 0 0 0 .387-2 41.364 41.364 0 0 1-.74-4.207 1.321 1.321 0 0 0-.996-1.155 1.331 1.331 0 0 0-.537-.025h-5.68a1.001 1.001 0 0 0-.907.913c-.367 5.127 2.493 10.613 3.073 11.667v.04l.08.153a23.624 23.624 0 0 0 8.667 8.667l.293.167c1.333.707 6.633 3.373 11.587 3.007a.999.999 0 0 0 .927-.907v-5.673a1.317 1.317 0 0 0-.667-1.371 1.346 1.346 0 0 0-.513-.162z"/>
    </symbol>
    <symbol id="email" viewBox="0 0 32 32">
      <path stroke-linecap="round" stroke-linejoin="round" stroke-width="1.333" d="M25.148 27.035c.356-.296.698-.608 1.025-.937M23.879 16a7.874 7.874 0 0 0-7.21-7.837 7.871 7.871 0 1 0 7.212 7.838h-.001z"/>
      <path stroke-linecap="round" stroke-linejoin="round" stroke-width="1.333" d="M30.333 16a14.323 14.323 0 0 0-5.702-11.467A14.33 14.33 0 0 0 12.039 2.2 14.33 14.33 0 0 0 1.735 17.385a14.32 14.32 0 0 0 2.132 6.224l-.889 5.413 5.413-.889a14.3 14.3 0 0 0 13.187 1.075"/>
      <path stroke-linecap="round" stroke-linejoin="round" stroke-width="1.333" d="M23.43 18.624c-.963 2.348.605 3.611 1.953 3.918 1.645.373 4.95-1.346 4.95-6.542"/>
    </symbol>
    <symbol id="lighthouse" viewBox="0 0 32 32">
      <path stroke-linecap="round" stroke-linejoin="round" stroke-width="2" d="M20.667 30h-9.333m9.333 0V16.933a.934.934 0 0 0-.933-.933h-7.467a.932.932 0 0 0-.933.933V30m9.333 0h8.4a.934.934 0 0 0 .933-.933v-3.578a.932.932 0 0 0-.933-.933H21.6a.934.934 0 0 0-.933.933V30zm-9.334 0v-7.623a.932.932 0 0 0-.933-.933H2.933a.932.932 0 0 0-.933.933v6.689a.932.932 0 0 0 .933.933h8.4zm2.81-24.714 1.414-2.998A.48.48 0 0 1 16 2a.483.483 0 0 1 .443.288l1.416 2.998 3.161.484c.406.062.568.585.274.884l-2.287 2.333.54 3.295c.068.423-.355.747-.719.546L16 11.272l-2.828 1.556c-.362.199-.787-.123-.719-.546l.54-3.295-2.287-2.333c-.296-.299-.132-.821.272-.884l3.164-.484z"/>
    </symbol>
    <symbol id="burger-menu" viewBox="0 0 32 32">
      <path d="M4 5.333h24V8H4V5.333zm0 9.334h24v2.667H4v-2.667zM4 24h24v2.667H4V24z"/>
    </symbol>
    <symbol id="cross" viewBox="0 0 32 32">
      <path d="M16 14.115l6.6-6.6 1.885 1.885-6.6 6.6 6.6 6.6-1.885 1.885-6.6-6.6-6.6 6.6-1.885-1.885 6.6-6.6-6.6-6.6 1.885-1.885 6.6 6.6z"></path>
    </symbol>
    <symbol id="graph" viewBox="0 0 32 32">
      <path stroke-linecap="round" stroke-linejoin="round" stroke-width="2" d="M26.667 26.667H5.334V5.334"/>
      <path stroke-linecap="round" stroke-linejoin="round" stroke-width="2" d="M5.333 22 16 12l4 4 6-6"/>
    </symbol>
    <symbol id="home" viewBox="0 0 32 32">
      <path stroke-linecap="round" stroke-linejoin="round" stroke-width="2" d="M25.333 17.333v8.533a.8.8 0 0 1-.8.8H7.466a.8.8 0 0 1-.8-.8v-8.533M4 12.667l12-7.333 12 7.333H4z"/>
    </symbol>
    <symbol id="suitcase" viewBox="0 0 32 32">
      <path stroke-width="2" d="M10.667 9.333h10.667m-10.667 0H5.334A2.668 2.668 0 0 0 2.667 12v13.333A2.668 2.668 0 0 0 5.334 28h21.333a2.668 2.668 0 0 0 2.667-2.667V12a2.668 2.668 0 0 0-2.667-2.667h-16zm0 0V4.8a.8.8 0 0 1 .8-.8h9.067a.8.8 0 0 1 .8.8v4.533H10.667z"/>
    </symbol>
    <symbol id="logo" viewBox="0 0 32 32">
      <path d="M11.368 6.494v6.649h-.779L6.966 7.922h-.065v5.221h-.805V6.494h.779l3.636 5.234h.065V6.494h.792zM13.785 6.494v6.649h-.805V6.494h.805zM20.75 8.571h-.805a1.674 1.674 0 0 0-.679-1.052c-.167-.121-.352-.212-.555-.273s-.416-.091-.636-.091c-.403 0-.767.102-1.094.305-.325.203-.583.503-.776.899-.19.396-.286.882-.286 1.458s.095 1.062.286 1.458c.193.396.451.696.776.899.327.203.692.305 1.094.305.221 0 .433-.03.636-.091s.389-.15.555-.27a1.714 1.714 0 0 0 .679-1.055h.805c-.061.34-.171.644-.331.912a2.492 2.492 0 0 1-1.399 1.11 2.998 2.998 0 0 1-.945.146c-.567 0-1.071-.139-1.513-.416s-.789-.671-1.042-1.182c-.253-.511-.38-1.117-.38-1.818s.127-1.307.38-1.818c.253-.511.601-.905 1.042-1.182s.946-.416 1.513-.416c.335 0 .65.049.945.146.296.097.564.24.802.429.238.186.437.413.597.682.16.266.271.57.331.912zM22.051 13.143V6.494h4.013v.714h-3.208v2.247h3v.714h-3v2.26h3.26v.714h-4.065zM5.707 17.351l1.974 5.597h.078l1.974-5.597h.844L8.135 24h-.831l-2.442-6.649h.844zM12.418 17.351V24h-.805v-6.649h.805zM14.033 24v-6.649h4.013v.714h-3.208v2.247h3v.714h-3v2.26h3.26V24h-4.065zM20.705 24l-1.818-6.649h.818l1.39 5.416h.065l1.416-5.416h.909l1.416 5.416h.065l1.39-5.416h.818L25.356 24h-.831l-1.468-5.299h-.052L21.537 24h-.831z"/>
    </symbol>
    <symbol id="twitter" viewBox="0 0 32 32">
      <path stroke-linecap="round" stroke-linejoin="round" stroke-width="2.667" d="M32 5.344s-1.027 2.799-2.933 4.531c2.347 13.327-13.787 23.056-26.4 15.459 3.227.133 6.453-.8 8.8-2.665-7.333-1.999-11-9.862-7.333-15.992 3.227 3.465 8.213 5.464 13.2 5.331-1.32-5.597 5.867-8.796 10.267-5.064 1.613 0 4.4-1.599 4.4-1.599z"/>
    </symbol>
  <symbol id="youtube" viewBox="0 0 32 32">
      <path d="M29.384 5.513C28.518 4.863 26.105 4 15.992 4 5.155 4 3.547 4.991 3.031 5.316.285 7.036.024 14.648 0 16.192c.033 2.039.349 8.822 3.029 10.5.515.323 2.114 1.309 12.963 1.309 10.119 0 12.53-.859 13.392-1.506 2.341-1.755 2.61-7.799 2.616-10.329-.006-2.035-.211-8.846-2.616-10.652zm-1.167 19.291c-.348.261-2.347 1.114-12.226 1.114-9.55 0-11.554-.773-11.933-1.011-.964-.603-1.981-3.803-2.061-8.721.079-4.907 1.11-8.49 2.063-9.085.38-.239 2.391-1.018 11.931-1.018 9.871 0 11.875.858 12.225 1.12.856.642 1.772 4.024 1.785 8.969-.013 5.022-.936 7.995-1.785 8.632zm-5.711-9.623-8.988-5.749a.967.967 0 0 0-1.007-.015c-.154.091-.283.222-.372.382s-.136.341-.137.525v11.5c0 .276.105.541.293.736s.441.305.706.305c.182 0 .36-.052.516-.149l8.989-5.751c.3-.189.483-.527.483-.892s-.183-.704-.482-.892zm-8.505 4.798v-7.812l6.056 3.906-6.056 3.907z"/>
    </symbol>
  <symbol id="instagram" viewBox="0 0 32 32">
      <path d="M9.953 1.421c1.564-.072 2.063-.088 6.047-.088s4.483.017 6.045.088c1.563.071 2.629.32 3.563.681a7.218 7.218 0 0 1 2.597 1.693 7.158 7.158 0 0 1 1.691 2.596c.363.933.611 2 .683 3.56.072 1.567.088 2.065.088 6.048 0 3.984-.017 4.483-.088 6.047-.071 1.56-.32 2.627-.683 3.56a7.19 7.19 0 0 1-1.691 2.599 7.187 7.187 0 0 1-2.597 1.691c-.933.363-2 .611-3.56.683-1.565.072-2.064.088-6.048.088s-4.483-.017-6.047-.088c-1.56-.071-2.627-.32-3.56-.683a7.19 7.19 0 0 1-2.599-1.691 7.185 7.185 0 0 1-1.692-2.597c-.361-.933-.609-2-.681-3.56-.072-1.567-.088-2.065-.088-6.048 0-3.984.017-4.483.088-6.045s.32-2.629.681-3.563a7.192 7.192 0 0 1 1.693-2.597 7.195 7.195 0 0 1 2.596-1.692c.933-.361 2-.609 3.56-.681h.001zm11.974 2.64C20.38 3.99 19.916 3.976 16 3.976s-4.38.015-5.927.085c-1.431.065-2.207.304-2.724.505a4.57 4.57 0 0 0-1.687 1.096 4.543 4.543 0 0 0-1.096 1.687c-.201.517-.44 1.293-.505 2.724-.071 1.547-.085 2.011-.085 5.927s.015 4.38.085 5.927c.065 1.431.304 2.207.505 2.724a4.56 4.56 0 0 0 1.096 1.687 4.551 4.551 0 0 0 1.687 1.096c.517.201 1.293.44 2.724.505 1.547.071 2.009.085 5.927.085s4.38-.015 5.927-.085c1.431-.065 2.207-.304 2.724-.505a4.57 4.57 0 0 0 1.687-1.096 4.551 4.551 0 0 0 1.096-1.687c.201-.517.44-1.293.505-2.724.071-1.547.085-2.011.085-5.927s-.015-4.38-.085-5.927c-.065-1.431-.304-2.207-.505-2.724a4.57 4.57 0 0 0-1.096-1.687 4.543 4.543 0 0 0-1.687-1.096c-.517-.201-1.293-.44-2.724-.505zm-7.8 16.46a4.895 4.895 0 0 0 6.749-5 4.891 4.891 0 0 0-1.415-2.981 4.887 4.887 0 0 0-3.94-1.408 4.897 4.897 0 0 0-4.204 6.289 4.898 4.898 0 0 0 2.808 3.101zm-3.458-9.852a7.538 7.538 0 1 1 10.66 10.661 7.538 7.538 0 0 1-10.66-10.661zm14.542-1.085a1.785 1.785 0 0 0-.553-2.948 1.772 1.772 0 0 0-1.967.428 1.781 1.781 0 0 0 1.271 3.006c.464.007.912-.167 1.249-.486z"/>
    </symbol>
    <symbol id="loogo" viewBox="0 0 32 32">
      <path d="M10.497.145v10.58H9.239L3.392 2.418h-.104v8.307h-1.3V.145h1.258l5.868 8.327h.104V.145h1.279ZM14.396.145v10.58h-1.3V.145h1.3ZM25.636 3.45h-1.3a2.668 2.668 0 0 0-1.095-1.674 2.954 2.954 0 0 0-.896-.433 3.625 3.625 0 0 0-1.027-.144c-.65 0-1.238.161-1.765.485-.524.324-.942.8-1.252 1.431-.308.63-.461 1.404-.461 2.32 0 .916.153 1.689.46 2.32.311.63.729 1.106 1.253 1.43a3.308 3.308 0 0 0 1.765.486c.357 0 .699-.048 1.027-.145.329-.096.627-.24.896-.429a2.694 2.694 0 0 0 1.095-1.679h1.3A4.23 4.23 0 0 1 25.1 8.87c-.258.427-.58.79-.964 1.09a4.243 4.243 0 0 1-1.294.677 4.885 4.885 0 0 1-1.525.232c-.915 0-1.729-.22-2.441-.66-.713-.442-1.273-1.069-1.682-1.881-.409-.813-.613-1.777-.613-2.893 0-1.116.204-2.08.613-2.893.409-.813.97-1.44 1.682-1.88C19.589.22 20.403 0 21.318 0c.542 0 1.05.077 1.525.232.479.155.91.383 1.294.682.384.297.706.658.964 1.085.259.424.437.908.535 1.452ZM27.735 10.725V.145h6.476V1.28h-5.176v3.575h4.84v1.137h-4.84v3.595h5.26v1.137h-6.56ZM1.362 17.42l3.186 8.906h.125L7.86 17.42H9.22L5.281 28H3.94L0 17.42h1.362ZM12.192 17.42V28h-1.3V17.42h1.3ZM14.797 28V17.42h6.476v1.136h-5.177v3.575h4.841v1.137h-4.84v3.595h5.26V28h-6.56ZM25.564 28 22.63 17.42h1.32l2.242 8.617h.105l2.284-8.617h1.467l2.285 8.617h.104l2.243-8.617H36L33.066 28h-1.341l-2.368-8.431h-.084L26.905 28h-1.341Z"/>
    </symbol>
    <symbol id="icon-close-modal-flat" viewBox="0 0 32 32">
<path d="M28.335 31.089l-12.335-12.354-12.335 12.354-2.754-2.754 12.354-12.335-12.354-12.335 2.754-2.754 12.335 12.354 12.335-12.335 2.735 2.735-12.335 12.335 12.335 12.335-2.735 2.754z"></path>
</symbol>
  </defs>
</svg>